<mxfile host="app.diagrams.net" agent="Mozilla/5.0 (Windows NT 10.0; Win64; x64) AppleWebKit/537.36 (KHTML, like Gecko) Chrome/138.0.0.0 Safari/537.36" version="28.0.7">
  <diagram name="Page-1" id="Q3ALEpGXokqotP2fKUH3">
    <mxGraphModel dx="872" dy="473" grid="1" gridSize="10" guides="1" tooltips="1" connect="1" arrows="1" fold="1" page="1" pageScale="1" pageWidth="850" pageHeight="1100" math="0" shadow="0">
      <root>
        <mxCell id="0" />
        <mxCell id="1" parent="0" />
        <mxCell id="A2-GQdZabWr4Civ8zzSm-1" value="plan" style="ellipse;whiteSpace=wrap;html=1;" vertex="1" parent="1">
          <mxGeometry x="360" y="50" width="110" height="60" as="geometry" />
        </mxCell>
        <mxCell id="A2-GQdZabWr4Civ8zzSm-2" value="" style="endArrow=classic;html=1;rounded=0;exitX=0.44;exitY=1;exitDx=0;exitDy=0;exitPerimeter=0;" edge="1" parent="1" source="A2-GQdZabWr4Civ8zzSm-1">
          <mxGeometry width="50" height="50" relative="1" as="geometry">
            <mxPoint x="410" y="230" as="sourcePoint" />
            <mxPoint x="416" y="140" as="targetPoint" />
            <Array as="points">
              <mxPoint x="416" y="110" />
            </Array>
          </mxGeometry>
        </mxCell>
        <mxCell id="A2-GQdZabWr4Civ8zzSm-7" value="Develop" style="ellipse;whiteSpace=wrap;html=1;" vertex="1" parent="1">
          <mxGeometry x="360" y="140" width="110" height="60" as="geometry" />
        </mxCell>
        <mxCell id="A2-GQdZabWr4Civ8zzSm-10" value="" style="endArrow=classic;html=1;rounded=0;" edge="1" parent="1">
          <mxGeometry width="50" height="50" relative="1" as="geometry">
            <mxPoint x="414.5" y="200" as="sourcePoint" />
            <mxPoint x="415" y="240" as="targetPoint" />
          </mxGeometry>
        </mxCell>
        <mxCell id="A2-GQdZabWr4Civ8zzSm-11" value="build" style="ellipse;whiteSpace=wrap;html=1;" vertex="1" parent="1">
          <mxGeometry x="355" y="240" width="120" height="60" as="geometry" />
        </mxCell>
        <mxCell id="A2-GQdZabWr4Civ8zzSm-15" value="Test" style="ellipse;whiteSpace=wrap;html=1;" vertex="1" parent="1">
          <mxGeometry x="355" y="340" width="120" height="50" as="geometry" />
        </mxCell>
        <mxCell id="A2-GQdZabWr4Civ8zzSm-16" value="" style="endArrow=classic;html=1;rounded=0;exitX=0.5;exitY=1;exitDx=0;exitDy=0;" edge="1" parent="1" source="A2-GQdZabWr4Civ8zzSm-15">
          <mxGeometry width="50" height="50" relative="1" as="geometry">
            <mxPoint x="420" y="420" as="sourcePoint" />
            <mxPoint x="415" y="430" as="targetPoint" />
          </mxGeometry>
        </mxCell>
        <mxCell id="A2-GQdZabWr4Civ8zzSm-17" style="edgeStyle=orthogonalEdgeStyle;rounded=0;orthogonalLoop=1;jettySize=auto;html=1;exitX=0.5;exitY=1;exitDx=0;exitDy=0;" edge="1" parent="1" source="A2-GQdZabWr4Civ8zzSm-15" target="A2-GQdZabWr4Civ8zzSm-15">
          <mxGeometry relative="1" as="geometry" />
        </mxCell>
        <mxCell id="A2-GQdZabWr4Civ8zzSm-18" style="edgeStyle=orthogonalEdgeStyle;rounded=0;orthogonalLoop=1;jettySize=auto;html=1;exitX=0.5;exitY=1;exitDx=0;exitDy=0;" edge="1" parent="1" source="A2-GQdZabWr4Civ8zzSm-15" target="A2-GQdZabWr4Civ8zzSm-15">
          <mxGeometry relative="1" as="geometry" />
        </mxCell>
        <mxCell id="A2-GQdZabWr4Civ8zzSm-19" value="" style="endArrow=classic;html=1;rounded=0;exitX=0.5;exitY=1;exitDx=0;exitDy=0;" edge="1" parent="1" source="A2-GQdZabWr4Civ8zzSm-11">
          <mxGeometry width="50" height="50" relative="1" as="geometry">
            <mxPoint x="420" y="310" as="sourcePoint" />
            <mxPoint x="415" y="340" as="targetPoint" />
          </mxGeometry>
        </mxCell>
        <mxCell id="A2-GQdZabWr4Civ8zzSm-20" value="Release" style="ellipse;whiteSpace=wrap;html=1;" vertex="1" parent="1">
          <mxGeometry x="360" y="430" width="110" height="60" as="geometry" />
        </mxCell>
      </root>
    </mxGraphModel>
  </diagram>
</mxfile>
